
        <svg xmlns="http://www.w3.org/2000/svg" xmlns:xlink="http://www.w3.org/1999/xlink" version="1.1" width="3162.162162162162" 
        height="729.4841217375956" viewBox="0 0 3162.162162162162 729.4841217375956">
			
			<g transform="scale(8.108108108108107) translate(10, 10)">
				<defs id="SvgjsDefs1207"><linearGradient id="SvgjsLinearGradient1212"><stop id="SvgjsStop1213" stop-color="#905e26" offset="0"></stop><stop id="SvgjsStop1214" stop-color="#f5ec9b" offset="0.5"></stop><stop id="SvgjsStop1215" stop-color="#905e26" offset="1"></stop></linearGradient><linearGradient id="SvgjsLinearGradient1216"><stop id="SvgjsStop1217" stop-color="#905e26" offset="0"></stop><stop id="SvgjsStop1218" stop-color="#f5ec9b" offset="0.5"></stop><stop id="SvgjsStop1219" stop-color="#905e26" offset="1"></stop></linearGradient></defs><g id="SvgjsG1208" featureKey="Df7oLJ-0" transform="matrix(0.2861746762684532,0,0,0.2861746762684532,-22.207152258424557,-22.23577583940203)" fill="url(#SvgjsLinearGradient1212)"><g xmlns="http://www.w3.org/2000/svg"><path d="M182.4,123.3c6.4,1.9,12.9,3.2,19.5,4.1c1.7,0.2,3.4,0.4,5,0.6c0.1-0.6,0.2-1.3,0.3-1.9c0.7-4.3,1.5-8.7,2.2-13   c1.6-9.7,3.3-19.5,6.4-28.8c0.6-1.7,1.2-3.4,1.8-5.1c-4-0.6-8.1-1-12.1-1.2c-1-0.1-2-0.1-2.9-0.1c-0.7,5.6-2.1,11.1-4.1,16.3   c-2.8,7.5-6.4,14.7-10.8,21.5C186.1,118.2,184.3,120.7,182.4,123.3z"></path><path d="M204.9,146.2c0.2-3.1,0.4-6.2,0.8-9.3c-4.4-0.4-8.7-1.1-13-1.9c-5.5-1-11-2.4-16.3-4.1c-1,1.2-2.1,2.4-3.2,3.6   c-7.1,7.8-15.1,14.7-23.9,20.5c-2.5,1.7-5.1,3.3-7.8,4.8c1.6,7.2,2.2,14.8,1.6,22.1c-0.2,3-0.6,6.1-1.2,9.1   c1.5-0.2,2.9-0.4,4.4-0.6c20.3-2.8,40.4-6.7,60.2-11.9C204.9,167.8,204.3,157,204.9,146.2z"></path><path d="M133.1,217.4c-0.6,1.4-1.3,2.7-1.9,4c2.8,1,5.6,2.1,8.3,3.4c9.2,4.3,17.8,10,25.2,16.9c0.2,0.2,0.5,0.4,0.7,0.6   c13.1-17.3,25.7-35.1,37.1-53.5c-20.7,5.1-41.6,8.9-62.8,11.4C137.9,206.1,135.7,211.8,133.1,217.4z"></path><path d="M215.9,128.6c6,0.2,12.1,0.1,18.1-0.4c2.6-6.3,5-12.6,7.3-19.1c2.4-7.1,4.7-14.3,6.2-21.7c-0.9-0.4-1.9-0.8-2.8-1.2   c-5.8-2.3-11.8-4.2-18-5.6c-3.4,8.4-5.4,17.4-7.1,26.3c-0.8,4.3-1.5,8.7-2.2,13C216.9,122.9,216.4,125.7,215.9,128.6z"></path><path d="M220.6,137.7c-2,0-3.9-0.1-5.9-0.2c-1.1,10.4-1.3,20.8-0.3,31.1c5.7-10.2,10.9-20.6,15.7-31.2   C226.9,137.6,223.7,137.7,220.6,137.7z"></path><path d="M244.2,126.9c9.6-1.7,19-4.4,28.1-8.2c4.4-1.9,8.7-4,12.8-6.3c-5.2-5.1-10.9-9.8-17.1-13.9c-3.8-2.6-7.8-4.9-12.1-7.1   c-2.6,11.6-6.6,22.9-11,34C244.6,125.8,244.4,126.4,244.2,126.9z"></path><path d="M246.8,135.5c-2.2,0.4-4.4,0.7-6.6,1c-3,7.1-6.3,14.1-9.7,21c-2.9,5.7-5.9,11.3-9,16.8c16.6-4.9,32.9-10.6,48.9-17.3   c12.2-5.2,24.1-10.9,35.8-17.2c-0.7-1.2-1.4-2.4-2.1-3.5c-3.6-5.9-7.8-11.7-12.7-17.2c-4.3,2.5-8.8,4.8-13.4,6.8   C268,130.3,257.6,133.7,246.8,135.5z"></path><path d="M216.9,185c1.8,7.9,4.2,15.6,7.3,23.1c4.3,10.1,9.8,19.6,16.4,28.4c0.3,0.4,0.7,0.9,1,1.3c5.2-8.4,11.3-16.3,18-23.6   c8.4-9.1,17.8-17.3,28.1-24.1c9.9-6.5,20.5-11.9,31.6-16.1c-0.9-3.9-1.9-7.8-3.2-11.6c-1.6-4.9-3.6-9.8-5.8-14.5   c-7.2,3.9-14.4,7.5-21.8,10.9C265.4,169.5,241.4,178.2,216.9,185z"></path><path d="M321,182.9c-1.4,0.5-2.9,1.1-4.3,1.7c-11.5,4.9-22.3,11.2-32.2,18.7c-10,7.8-18.9,16.8-26.7,26.8c-3.6,4.7-6.9,9.6-10,14.7   c6.6,7.1,13.9,13.6,21.6,19.6c7.3,5.6,14.9,10.8,22.5,15.9c4.7-5.3,8.9-11,12.6-17c4.5-7.3,8.3-15.4,11.3-24.1   c2.7-8,4.7-16.7,5.7-25.9C322.6,203.4,322.4,193.1,321,182.9z"></path><path d="M221,222.2c-4.6-9-8.4-18.5-11.1-28.3c-11.8,18.9-24.8,37.1-38.2,54.8c1.8,2,3.6,4.1,5.3,6.3c3.8,4.8,7.4,9.9,10.6,15.2   c3.3,5.5,6.2,11.3,8.7,17.2c4.8-1.2,9.7-2.1,14.6-2.5c2.4-0.2,4.8-0.3,7.2-0.3c1.4,0,2.8,0,4.1,0.1c1-4.5,2.2-8.9,3.6-13.3   c2.9-8.8,6.6-17.3,11-25.4C230.7,238.6,225.4,230.7,221,222.2z"></path><path d="M220.5,293.6c-0.8,0-1.5,0-2.3,0c-3.5,0-6.9,0.2-10.4,0.7c-2.8,0.4-5.5,0.9-8.2,1.6c0.8,2.1,1.5,4.2,2.2,6.3   c2.1,6.5,3.8,13.2,5.3,19.9c4.3-0.3,8.7-0.8,13.2-1.5c-0.3-1.2-0.5-2.3-0.7-3.5c-0.7-5.1-0.7-10.2-0.2-15.4   C219.6,298.9,220,296.3,220.5,293.6z"></path><path d="M270.1,276.1c-9.5-7-18.7-14.4-26.9-23c-1.7,3.3-3.3,6.7-4.8,10.1c-3,7.3-5.4,14.8-7.2,22.5c5.1,0.9,10,2.4,14.8,4.2   c5.8,2.3,11.5,5,16.9,8.3c1.7,1,3.4,2.1,5.1,3.2c0.1-0.1,0.3-0.2,0.4-0.3c6.2-4.2,12-8.9,17.3-14.2c-0.2-0.2-0.5-0.3-0.7-0.5   C279.9,283.2,274.9,279.7,270.1,276.1z"></path><path d="M229.4,294.5c-0.3,1.7-0.6,3.3-0.8,5c-0.6,5.2-0.9,10.4-0.3,15.6c0.2,1.2,0.4,2.4,0.7,3.6c10.5-2.6,20.8-6.6,30.4-12   c-4.5-2.7-9.1-5.2-13.9-7.3C240.3,297.3,234.9,295.6,229.4,294.5z"></path><path d="M146.8,266.4c0,0-0.1,0.1-0.1,0.1c-0.2,0.3-0.4,0.5-0.6,0.8C146.4,267,146.6,266.7,146.8,266.4z"></path><path d="M158.7,250.9c0.4-0.5,0.7-0.9,1.1-1.4c-2.3-2.2-4.7-4.3-7.3-6.3c-6.1-4.6-12.6-8.4-19.6-11.5c-2-0.8-4-1.6-6.1-2.3   c-3.7,6.5-7.7,12.8-12.1,18.9c-5,7.1-10.4,13.9-15.8,20.7c1.3,1.9,2.8,3.9,4.4,6c5.2,6.7,11.1,12.9,17.6,18.4   c0.5,0.4,0.9,0.8,1.4,1.2c8.9-8.6,16.8-18.3,24.3-28.1C150.8,261.3,154.7,256.1,158.7,250.9z"></path><path d="M187.6,290c-4.4-9.9-9.9-19.3-16.5-27.9c-1.6-2.1-3.3-4.1-5.1-6.1c-0.9,1.1-1.7,2.2-2.6,3.3c-9.4,12.2-18.5,24.7-29.1,35.9   c-1.6,1.6-3.1,3.3-4.7,4.8c4.2,3,8.7,5.7,13.2,8.1c2.9,1.5,5.9,3,8.9,4.3c0.1-0.1,0.2-0.1,0.2-0.2c2.9-2.7,6-5.3,9.1-7.7   c4.3-3.4,8.8-6.4,13.7-9C179,293.5,183.2,291.6,187.6,290z"></path><path d="M186.1,300.2c-6.6,2.9-12.8,6.4-18.6,10.8c-2.1,1.6-4.2,3.3-6.2,5.1c2,0.7,4,1.3,6,1.8c8.3,2.3,17.1,3.7,26.3,4.2   c1.4,0.1,2.8,0.1,4.3,0.1c-1.9-8.1-4.1-16.1-6.9-23.9C189.3,298.9,187.7,299.6,186.1,300.2z"></path><path d="M113.2,193.7c3.7-0.3,7.4-0.6,11-0.9c2.8-0.2,5.6-0.5,8.3-0.8c0.5-2.1,0.9-4.3,1.2-6.4c0.7-6.1,0.8-12.1,0-18.2   c-0.2-1.1-0.3-2.2-0.6-3.3c-6.1,3-12.5,5.4-19,7.4c-11.1,3.3-22.7,5.2-34.2,5.2c-1.3,6.5-2.1,13.1-2.3,19.7   c8.3-0.2,16.6-0.9,24.8-1.7C106.1,194.3,109.7,194,113.2,193.7z"></path><path d="M109.8,216.3c4.3,0.6,8.5,1.3,12.7,2.4c1.6-3.1,3-6.2,4.4-9.4c1.1-2.7,2.1-5.4,3.1-8.1c-1.3,0.1-2.6,0.3-4,0.4   c-6.5,0.6-13,1.1-19.5,1.7c-6.5,0.6-13,1.3-19.6,1.7c-3,0.2-6,0.3-9.1,0.4c0.2,3.9,0.5,7.9,1.1,11.8c0.2,0,0.4-0.1,0.5-0.1   c6-1,12-1.6,18.1-1.6C101.6,215.5,105.7,215.8,109.8,216.3z"></path><path d="M117.9,226.9c-2.7-0.6-5.5-1.2-8.3-1.6c-4.1-0.5-8.3-0.8-12.4-0.8c-4.2,0-8.4,0.3-12.6,0.8c-1.4,0.2-2.8,0.4-4.2,0.7   c0.1,0.3,0.1,0.7,0.2,1c1.8,8.4,4.8,16.9,8.8,25.5c1.3,2.8,2.8,5.6,4.4,8.5c1.9-2.3,3.7-4.7,5.5-7   C106.1,245.3,112.4,236.3,117.9,226.9z"></path><path d="M153.5,109.3c5.4,4,11.2,7.3,17.4,9.9c0.9,0.4,1.7,0.7,2.6,1c0-0.1,0.1-0.1,0.1-0.2c5.9-7.7,11-16,14.9-25   c2.3-5.6,4.1-11.3,5-17.3c-0.2,0-0.4,0-0.6,0c-9.1,0.6-18.1,2.1-26.6,4.6c-8.2,2.4-16.3,5.7-24.2,10c-0.8,0.4-1.6,0.9-2.4,1.3   c1.1,1.9,2.3,3.8,3.7,5.6C146.3,103.1,149.7,106.4,153.5,109.3z"></path><path d="M127,129.7c3,3.7,5.7,7.6,7.9,11.8c1.5,3,2.9,6.1,4.1,9.2c4.4-2.6,8.7-5.5,12.8-8.6c5.6-4.4,10.8-9.4,15.6-14.7   c-0.7-0.3-1.4-0.6-2-0.9c-8.4-3.7-16.3-8.6-23-15c-3.3-3.2-6.3-6.7-8.8-10.6c-0.5-0.8-1-1.6-1.5-2.5c-3.9,2.7-7.8,5.6-11.6,8.9   c-2.5,2.1-4.9,4.4-7.4,6.9C118.2,119,122.7,124.3,127,129.7z"></path><path d="M123.8,158.5c2.4-1,4.8-2.2,7.2-3.4c-0.5-1.5-1-3-1.6-4.5c-2.2-5-4.9-9.7-8.2-14.1c-4.3-5.5-8.9-10.9-14.1-15.6   c-1.4,1.6-2.8,3.4-4.3,5.4c-5.2,6.8-9.7,14.3-13.5,22.3c-2.9,6.1-5.2,12.5-7,19c3.9-0.1,7.8-0.4,11.6-0.9   C104.1,165.3,114.2,162.5,123.8,158.5z"></path></g></g><g id="SvgjsG1209" featureKey="Ua4uQk-0" transform="matrix(2.5284450550960935,0,0,2.5284450550960935,87.47155404066149,0.9974739083864961)" fill="url(#SvgjsLinearGradient1216)"><path d="M7.44 20 c-1.2 0 -2.3 -0.28 -3.26 -0.84 c-0.98 -0.56 -1.76 -1.36 -2.34 -2.32 c-0.56 -0.98 -0.84 -2.1 -0.84 -3.3 c0 -1.18 0.28 -2.28 0.84 -3.26 c0.58 -0.98 1.34 -1.76 2.32 -2.32 s2.08 -0.84 3.28 -0.84 c1.18 0 2.28 0.28 3.26 0.84 s1.76 1.34 2.32 2.32 c0.58 0.98 0.86 2.08 0.86 3.26 c0 1.2 -0.28 2.3 -0.86 3.28 c-0.56 0.98 -1.34 1.76 -2.32 2.34 c-0.98 0.56 -2.08 0.84 -3.26 0.84 z M7.48 17.12 c0.58 0 1.12 -0.16 1.6 -0.46 c0.5 -0.32 0.9 -0.74 1.18 -1.3 c0.3 -0.54 0.44 -1.16 0.44 -1.82 c0 -0.64 -0.14 -1.26 -0.44 -1.8 c-0.28 -0.54 -0.68 -0.96 -1.18 -1.28 c-0.48 -0.3 -1.02 -0.46 -1.6 -0.46 c-0.6 0 -1.14 0.16 -1.64 0.46 c-0.52 0.32 -0.92 0.74 -1.22 1.28 c-0.3 0.56 -0.44 1.16 -0.44 1.8 c0 0.66 0.14 1.28 0.44 1.82 c0.32 0.54 0.72 0.98 1.22 1.28 c0.5 0.32 1.04 0.48 1.64 0.48 z M16.14 20 c-0.14 0 -0.26 -0.12 -0.26 -0.26 l0 -11.98 c0 -0.14 0.12 -0.26 0.26 -0.26 l8.26 0 c0.08 0 0.14 0.02 0.18 0.08 c0.06 0.04 0.08 0.1 0.08 0.18 l-0.02 2.24 c0 0.14 -0.12 0.26 -0.26 0.26 l-5.4 0 l0 2.42 l3.4 0 c0.14 0 0.26 0.12 0.26 0.26 l0 2.26 c0 0.14 -0.12 0.26 -0.26 0.26 l-3.4 0 l0 4.28 c0 0.14 -0.1 0.26 -0.24 0.26 l-2.6 0 z M26.92 20 c-0.14 0 -0.26 -0.12 -0.26 -0.26 l0 -11.98 c0 -0.14 0.12 -0.26 0.26 -0.26 l8.26 0 c0.08 0 0.14 0.02 0.18 0.08 c0.06 0.04 0.08 0.1 0.08 0.18 l-0.02 2.24 c0 0.14 -0.12 0.26 -0.26 0.26 l-5.4 0 l0 2.42 l3.4 0 c0.14 0 0.26 0.12 0.26 0.26 l0 2.26 c0 0.14 -0.12 0.26 -0.26 0.26 l-3.4 0 l0 4.28 c0 0.14 -0.1 0.26 -0.24 0.26 l-2.6 0 z M37.7 20 c-0.14 0 -0.26 -0.12 -0.26 -0.26 l0 -11.98 c0 -0.14 0.12 -0.26 0.26 -0.26 l2.6 0 c0.14 0 0.26 0.12 0.26 0.26 l0 11.98 c0 0.14 -0.12 0.26 -0.26 0.26 l-2.6 0 z M48.86 20 c-1.18 0 -2.26 -0.28 -3.22 -0.84 c-0.96 -0.58 -1.72 -1.36 -2.26 -2.34 s-0.82 -2.08 -0.82 -3.3 c0 -1.18 0.28 -2.28 0.84 -3.26 c0.56 -0.96 1.34 -1.74 2.3 -2.3 c0.98 -0.56 2.08 -0.84 3.24 -0.84 c0.88 0 1.74 0.2 2.58 0.56 c0.84 0.38 1.56 0.88 2.16 1.52 c0.08 0.1 0.08 0.24 0 0.34 l-1.9 1.56 c-0.06 0.06 -0.12 0.1 -0.2 0.1 s-0.16 -0.04 -0.2 -0.1 c-1.02 -1.24 -2.66 -1.5 -4.04 -0.64 c-1.2 0.74 -1.64 2.1 -1.58 3.46 c0.06 1.38 1.06 2.56 2.38 2.96 c1.2 0.36 2.38 0.08 3.24 -0.84 c0.06 -0.04 0.12 -0.08 0.2 -0.06 c0.08 0 0.14 0.02 0.18 0.08 l1.94 1.36 c0.08 0.1 0.08 0.24 0 0.34 c-0.64 0.68 -1.4 1.24 -2.24 1.64 c-0.86 0.4 -1.74 0.6 -2.6 0.6 z M55.56 20 l0 -11.98 c0 -0.5 0.1 -0.6 0.26 -0.6 l8.76 0 c0.14 0 0.26 0.1 0.26 0.24 l0 2.26 c0 0.14 -0.12 0.26 -0.26 0.26 l-5.92 0 l0 2.08 l3.74 0 c0.14 0 0.26 0.12 0.26 0.26 l0 2.24 c0 0.14 -0.12 0.26 -0.26 0.26 l-3.74 0 l0 2.14 l5.9 0 c0.14 0 0.26 0.12 0.26 0.26 l0 2.24 c0 0.14 -0.12 0.26 -0.26 0.26 l-8.74 0 c-0.16 0 -0.26 -0.12 -0.26 0.08 z M68.86 20 c-0.08 0 -0.16 -0.04 -0.22 -0.12 c-0.04 -0.08 -0.04 -0.16 -0.02 -0.24 l3.58 -9.48 l-5.1 0 c-0.14 0 -0.26 -0.12 -0.26 -0.26 l0 -2.28 c0 -0.14 0.12 -0.26 0.26 -0.26 l8.44 0 c0.14 0 0.26 0.12 0.26 0.26 l0 1.96 c0 0.04 -0.02 0.08 -0.02 0.1 l-3.9 10.16 c-0.04 0.1 -0.14 0.16 -0.24 0.16 l-2.78 0 z M82.8 20 c-1.7 0 -2.88 -0.58 -3.8 -1.7 c-0.92 -1.1 -1.2 -2.7 -1.2 -4.72 c0 -2.04 0.28 -3.64 1.2 -4.74 c0.92 -1.12 2.1 -1.68 3.8 -1.68 s2.86 0.56 3.78 1.68 c0.92 1.1 1.2 2.7 1.2 4.74 c0 2.02 -0.28 3.62 -1.2 4.72 c-0.92 1.12 -2.08 1.7 -3.78 1.7 z M82.8 17.38 c0.72 0 1.06 -0.28 1.4 -0.84 c0.36 -0.62 0.38 -1.6 0.38 -2.96 s-0.02 -2.36 -0.38 -2.96 c-0.34 -0.58 -0.68 -0.86 -1.4 -0.86 c-0.74 0 -1.08 0.28 -1.42 0.86 c-0.36 0.6 -0.38 1.6 -0.38 2.96 s0.02 2.34 0.38 2.96 c0.34 0.56 0.68 0.84 1.42 0.84 z M94.78 20 c-1.7 0 -2.88 -0.58 -3.8 -1.7 c-0.92 -1.1 -1.2 -2.7 -1.2 -4.72 c0 -2.04 0.28 -3.64 1.2 -4.74 c0.92 -1.12 2.1 -1.68 3.8 -1.68 s2.86 0.56 3.78 1.68 c0.92 1.1 1.2 2.7 1.2 4.74 c0 2.02 -0.28 3.62 -1.2 4.72 c-0.92 1.12 -2.08 1.7 -3.78 1.7 z M94.78 17.38 c0.72 0 1.06 -0.28 1.4 -0.84 c0.36 -0.62 0.38 -1.6 0.38 -2.96 s-0.02 -2.36 -0.38 -2.96 c-0.34 -0.58 -0.68 -0.86 -1.4 -0.86 c-0.74 0 -1.08 0.28 -1.42 0.86 c-0.36 0.6 -0.38 1.6 -0.38 2.96 s0.02 2.34 0.38 2.96 c0.34 0.56 0.68 0.84 1.42 0.84 z M106.76 20 c-1.7 0 -2.88 -0.58 -3.8 -1.7 c-0.92 -1.1 -1.2 -2.7 -1.2 -4.72 c0 -2.04 0.28 -3.64 1.2 -4.74 c0.92 -1.12 2.1 -1.68 3.8 -1.68 s2.86 0.56 3.78 1.68 c0.92 1.1 1.2 2.7 1.2 4.74 c0 2.02 -0.28 3.62 -1.2 4.72 c-0.92 1.12 -2.08 1.7 -3.78 1.7 z M106.76 17.38 c0.72 0 1.06 -0.28 1.4 -0.84 c0.36 -0.62 0.38 -1.6 0.38 -2.96 s-0.02 -2.36 -0.38 -2.96 c-0.34 -0.58 -0.68 -0.86 -1.4 -0.86 c-0.74 0 -1.08 0.28 -1.42 0.86 c-0.36 0.6 -0.38 1.6 -0.38 2.96 s0.02 2.34 0.38 2.96 c0.34 0.56 0.68 0.84 1.42 0.84 z"></path></g>
			</g>
		</svg>
	